<?xml version="1.0" standalone="no"?>
<!DOCTYPE svg PUBLIC "-//W3C//DTD SVG 20010904//EN"
 "http://www.w3.org/TR/2001/REC-SVG-20010904/DTD/svg10.dtd">
<svg version="1.0" xmlns="http://www.w3.org/2000/svg"
 width="400.000000pt" height="400.000000pt" viewBox="0 0 400.000000 400.000000"
 preserveAspectRatio="xMidYMid meet">
<metadata>
Created by potrace 1.11, written by Peter Selinger 2001-2013
</metadata>
<g transform="translate(0.000000,400.000000) scale(0.100000,-0.100000)"
fill="#000000" stroke="none">
<path d="M227 3877 c-12 -4 -25 -13 -29 -20 -11 -17 -10 -81 1 -110 9 -23 15
-25 77 -26 37 0 72 -5 78 -11 8 -8 11 -255 11 -833 0 -452 -1 -854 -3 -894
l-4 -71 -88 -4 c-50 -1 -94 -8 -101 -15 -14 -14 -14 -78 0 -116 l11 -27 305 0
c296 0 306 1 326 21 16 16 20 30 16 62 -8 75 -11 77 -92 77 -50 0 -74 4 -78
13 -10 26 -15 1460 -6 1449 4 -4 45 -83 93 -177 182 -360 472 -854 752 -1281
104 -159 114 -169 166 -174 74 -6 221 -4 260 4 55 10 62 31 68 196 l5 144 67
-184 c76 -211 173 -502 382 -1143 182 -554 201 -606 229 -612 43 -10 193 -11
242 -2 100 18 148 61 193 174 33 83 221 649 297 898 26 83 50 161 55 175 5 14
30 93 56 175 25 83 68 218 95 300 26 83 56 175 65 206 l17 57 60 4 c75 6 91
23 83 90 -3 25 -8 52 -11 60 -4 10 -62 13 -307 12 -299 -2 -302 -2 -320 -24
-18 -22 -18 -35 -2 -112 5 -27 7 -28 75 -28 38 0 69 -3 69 -7 0 -9 -18 -119
-24 -148 -2 -11 -12 -54 -21 -95 -9 -41 -18 -86 -21 -100 -3 -14 -28 -113 -55
-220 -27 -107 -51 -202 -53 -211 -2 -8 -21 -76 -41 -150 -126 -467 -200 -709
-215 -709 -12 0 -44 83 -105 275 -31 99 -60 191 -65 205 -53 154 -300 996
-333 1136 -4 20 0 22 53 26 82 6 94 18 87 91 -3 32 -8 61 -10 64 -3 3 -128 5
-277 5 l-272 0 3 666 c2 367 5 688 7 714 l4 46 85 4 c102 4 113 14 108 90 -2
28 -9 56 -14 61 -7 7 -123 10 -317 10 l-308 0 -18 -23 c-18 -23 -19 -49 -2
-117 6 -22 10 -24 79 -22 40 1 77 -1 82 -4 5 -3 10 -83 12 -179 6 -323 6
-1367 0 -1360 -4 4 -41 75 -84 157 -43 83 -90 173 -105 200 -15 28 -47 86 -70
130 -42 77 -177 314 -330 575 -40 69 -84 145 -98 170 -14 25 -36 62 -49 82
-12 21 -23 40 -23 42 0 2 -23 44 -51 93 -28 48 -67 117 -87 153 -62 115 -27
103 -312 104 -138 1 -261 -3 -273 -7z"/>
</g>
</svg>
